<?xml version="1.0" encoding="utf-8" standalone="no"?>
<!DOCTYPE svg PUBLIC "-//W3C//DTD SVG 1.1//EN"
  "http://www.w3.org/Graphics/SVG/1.1/DTD/svg11.dtd">
<svg xmlns:xlink="http://www.w3.org/1999/xlink" width="864pt" height="504pt" viewBox="0 0 864 504" xmlns="http://www.w3.org/2000/svg" version="1.1">
 <metadata>
  <rdf:RDF xmlns:dc="http://purl.org/dc/elements/1.1/" xmlns:cc="http://creativecommons.org/ns#" xmlns:rdf="http://www.w3.org/1999/02/22-rdf-syntax-ns#">
   <cc:Work>
    <dc:type rdf:resource="http://purl.org/dc/dcmitype/StillImage"/>
    <dc:format>image/svg+xml</dc:format>
    <dc:creator>
     <cc:Agent>
      <dc:title>Matplotlib v3.11.2, https://matplotlib.org/</dc:title>
     </cc:Agent>
    </dc:creator>
   </cc:Work>
  </rdf:RDF>
 </metadata>
 <defs>
  <style type="text/css">*{stroke-linejoin: round; stroke-linecap: butt}</style>
 </defs>
 <g id="figure_1">
  <g id="patch_1">
   <path d="M 0 504 
L 864 504 
L 864 0 
L 0 0 
z
" style="fill: #ffffff"/>
  </g>
  <g id="axes_1">
   <g id="patch_2">
    <path d="M 146.88 383.04 
L 717.12 383.04 
L 717.12 141.12 
L 146.88 141.12 
z
" style="fill: #ffffff"/>
   </g>
   <g id="patch_3">
    <path d="M 146.88 153.216 
L 527.04 153.216 
L 527.04 177.408 
L 146.88 177.408 
z
" clip-path="url(#pfbf63fa886)" style="fill: #23658b; stroke: #ffffff; stroke-width: 0.6; stroke-linejoin: miter"/>
   </g>
   <g id="patch_4">
    <path d="M 527.04 153.216 
L 622.08 153.216 
L 622.08 177.408 
L 527.04 177.408 
z
" clip-path="url(#pfbf63fa886)" style="fill: url(#hde528c958b); stroke: #926018; stroke-width: 0.6; stroke-linejoin: miter"/>
   </g>
   <g id="patch_5">
    <path d="M 622.08 153.216 
L 717.12 153.216 
L 717.12 177.408 
L 622.08 177.408 
z
" clip-path="url(#pfbf63fa886)" style="fill: #c6ced4; stroke: #ffffff; stroke-width: 0.6; stroke-linejoin: miter"/>
   </g>
   <g id="patch_6">
    <path d="M 146.88 193.536 
L 479.52 193.536 
L 479.52 217.728 
L 146.88 217.728 
z
" clip-path="url(#pfbf63fa886)" style="fill: #23658b; stroke: #ffffff; stroke-width: 0.6; stroke-linejoin: miter"/>
   </g>
   <g id="patch_7">
    <path d="M 479.52 193.536 
L 574.56 193.536 
L 574.56 217.728 
L 479.52 217.728 
z
" clip-path="url(#pfbf63fa886)" style="fill: url(#hde528c958b); stroke: #926018; stroke-width: 0.6; stroke-linejoin: miter"/>
   </g>
   <g id="patch_8">
    <path d="M 574.56 193.536 
L 717.12 193.536 
L 717.12 217.728 
L 574.56 217.728 
z
" clip-path="url(#pfbf63fa886)" style="fill: #c6ced4; stroke: #ffffff; stroke-width: 0.6; stroke-linejoin: miter"/>
   </g>
   <g id="patch_9">
    <path d="M 146.88 233.856 
L 432 233.856 
L 432 258.048 
L 146.88 258.048 
z
" clip-path="url(#pfbf63fa886)" style="fill: #23658b; stroke: #ffffff; stroke-width: 0.6; stroke-linejoin: miter"/>
   </g>
   <g id="patch_10">
    <path d="M 432 233.856 
L 527.04 233.856 
L 527.04 258.048 
L 432 258.048 
z
" clip-path="url(#pfbf63fa886)" style="fill: url(#hde528c958b); stroke: #926018; stroke-width: 0.6; stroke-linejoin: miter"/>
   </g>
   <g id="patch_11">
    <path d="M 527.04 233.856 
L 717.12 233.856 
L 717.12 258.048 
L 527.04 258.048 
z
" clip-path="url(#pfbf63fa886)" style="fill: #c6ced4; stroke: #ffffff; stroke-width: 0.6; stroke-linejoin: miter"/>
   </g>
   <g id="patch_12">
    <path d="M 146.88 274.176 
L 384.48 274.176 
L 384.48 298.368 
L 146.88 298.368 
z
" clip-path="url(#pfbf63fa886)" style="fill: #23658b; stroke: #ffffff; stroke-width: 0.6; stroke-linejoin: miter"/>
   </g>
   <g id="patch_13">
    <path d="M 384.48 274.176 
L 479.52 274.176 
L 479.52 298.368 
L 384.48 298.368 
z
" clip-path="url(#pfbf63fa886)" style="fill: url(#hde528c958b); stroke: #926018; stroke-width: 0.6; stroke-linejoin: miter"/>
   </g>
   <g id="patch_14">
    <path d="M 479.52 274.176 
L 717.12 274.176 
L 717.12 298.368 
L 479.52 298.368 
z
" clip-path="url(#pfbf63fa886)" style="fill: #c6ced4; stroke: #ffffff; stroke-width: 0.6; stroke-linejoin: miter"/>
   </g>
   <g id="patch_15">
    <path d="M 146.88 314.496 
L 336.96 314.496 
L 336.96 338.688 
L 146.88 338.688 
z
" clip-path="url(#pfbf63fa886)" style="fill: #23658b; stroke: #ffffff; stroke-width: 0.6; stroke-linejoin: miter"/>
   </g>
   <g id="patch_16">
    <path d="M 336.96 314.496 
L 432 314.496 
L 432 338.688 
L 336.96 338.688 
z
" clip-path="url(#pfbf63fa886)" style="fill: url(#hde528c958b); stroke: #926018; stroke-width: 0.6; stroke-linejoin: miter"/>
   </g>
   <g id="patch_17">
    <path d="M 432 314.496 
L 717.12 314.496 
L 717.12 338.688 
L 432 338.688 
z
" clip-path="url(#pfbf63fa886)" style="fill: #c6ced4; stroke: #ffffff; stroke-width: 0.6; stroke-linejoin: miter"/>
   </g>
   <g id="patch_18">
    <path d="M 146.88 354.816 
L 289.44 354.816 
L 289.44 379.008 
L 146.88 379.008 
z
" clip-path="url(#pfbf63fa886)" style="fill: #23658b; stroke: #ffffff; stroke-width: 0.6; stroke-linejoin: miter"/>
   </g>
   <g id="patch_19">
    <path d="M 289.44 354.816 
L 384.48 354.816 
L 384.48 379.008 
L 289.44 379.008 
z
" clip-path="url(#pfbf63fa886)" style="fill: url(#hde528c958b); stroke: #926018; stroke-width: 0.6; stroke-linejoin: miter"/>
   </g>
   <g id="patch_20">
    <path d="M 384.48 354.816 
L 717.12 354.816 
L 717.12 379.008 
L 384.48 379.008 
z
" clip-path="url(#pfbf63fa886)" style="fill: #c6ced4; stroke: #ffffff; stroke-width: 0.6; stroke-linejoin: miter"/>
   </g>
   <g id="matplotlib.axis_1">
    <g id="xtick_1">
     <g id="line2d_1">
      <defs>
       <path id="m8c3a053f69" d="M 0 0 
L 0 3.5 
" style="stroke: #586875; stroke-width: 0.8"/>
      </defs>
      <g>
       <use xlink:href="#m8c3a053f69" x="146.88" y="383.04" style="fill: #586875; stroke: #586875; stroke-width: 0.8"/>
      </g>
     </g>
     <g id="text_1">
      <text style="font-size: 11px; font-family: 'DejaVu Sans'; text-anchor: middle; fill: #586875" x="146.88" y="398.397422" transform="rotate(-0 146.88 398.397422)">0%</text>
     </g>
    </g>
    <g id="xtick_2">
     <g id="line2d_2">
      <g>
       <use xlink:href="#m8c3a053f69" x="289.44" y="383.04" style="fill: #586875; stroke: #586875; stroke-width: 0.8"/>
      </g>
     </g>
     <g id="text_2">
      <text style="font-size: 11px; font-family: 'DejaVu Sans'; text-anchor: middle; fill: #586875" x="289.44" y="398.397422" transform="rotate(-0 289.44 398.397422)">25%</text>
     </g>
    </g>
    <g id="xtick_3">
     <g id="line2d_3">
      <g>
       <use xlink:href="#m8c3a053f69" x="432" y="383.04" style="fill: #586875; stroke: #586875; stroke-width: 0.8"/>
      </g>
     </g>
     <g id="text_3">
      <text style="font-size: 11px; font-family: 'DejaVu Sans'; text-anchor: middle; fill: #586875" x="432" y="398.397422" transform="rotate(-0 432 398.397422)">50%</text>
     </g>
    </g>
    <g id="xtick_4">
     <g id="line2d_4">
      <g>
       <use xlink:href="#m8c3a053f69" x="574.56" y="383.04" style="fill: #586875; stroke: #586875; stroke-width: 0.8"/>
      </g>
     </g>
     <g id="text_4">
      <text style="font-size: 11px; font-family: 'DejaVu Sans'; text-anchor: middle; fill: #586875" x="574.56" y="398.397422" transform="rotate(-0 574.56 398.397422)">75%</text>
     </g>
    </g>
    <g id="xtick_5">
     <g id="line2d_5">
      <g>
       <use xlink:href="#m8c3a053f69" x="717.12" y="383.04" style="fill: #586875; stroke: #586875; stroke-width: 0.8"/>
      </g>
     </g>
     <g id="text_5">
      <text style="font-size: 11px; font-family: 'DejaVu Sans'; text-anchor: middle; fill: #586875" x="717.12" y="398.397422" transform="rotate(-0 717.12 398.397422)">100%</text>
     </g>
    </g>
    <g id="text_6">
     <text style="font-size: 11px; font-family: 'DejaVu Sans'; text-anchor: middle; fill: #203343" x="432" y="413.398281" transform="rotate(-0 432 413.398281)">Share of the earlier personnel roster</text>
    </g>
   </g>
   <g id="matplotlib.axis_2">
    <g id="ytick_1">
     <g id="line2d_6"/>
     <g id="text_7">
      <text style="font-size: 11px; font-family: 'DejaVu Sans'; text-anchor: end; fill: #586875" x="134.88" y="169.491141" transform="rotate(-0 134.88 169.491141)">Fictional 05</text>
     </g>
    </g>
    <g id="ytick_2">
     <g id="line2d_7"/>
     <g id="text_8">
      <text style="font-size: 11px; font-family: 'DejaVu Sans'; text-anchor: end; fill: #586875" x="134.88" y="209.811141" transform="rotate(-0 134.88 209.811141)">Fictional 03</text>
     </g>
    </g>
    <g id="ytick_3">
     <g id="line2d_8"/>
     <g id="text_9">
      <text style="font-size: 11px; font-family: 'DejaVu Sans'; text-anchor: end; fill: #586875" x="134.88" y="250.131141" transform="rotate(-0 134.88 250.131141)">Fictional 06</text>
     </g>
    </g>
    <g id="ytick_4">
     <g id="line2d_9"/>
     <g id="text_10">
      <text style="font-size: 11px; font-family: 'DejaVu Sans'; text-anchor: end; fill: #586875" x="134.88" y="290.451141" transform="rotate(-0 134.88 290.451141)">Fictional 02</text>
     </g>
    </g>
    <g id="ytick_5">
     <g id="line2d_10"/>
     <g id="text_11">
      <text style="font-size: 11px; font-family: 'DejaVu Sans'; text-anchor: end; fill: #586875" x="134.88" y="330.771141" transform="rotate(-0 134.88 330.771141)">Fictional 04</text>
     </g>
    </g>
    <g id="ytick_6">
     <g id="line2d_11"/>
     <g id="text_12">
      <text style="font-size: 11px; font-family: 'DejaVu Sans'; text-anchor: end; fill: #586875" x="134.88" y="371.091141" transform="rotate(-0 134.88 371.091141)">Fictional 01</text>
     </g>
    </g>
   </g>
   <g id="patch_21">
    <path d="M 146.88 383.04 
L 717.12 383.04 
" style="fill: none; stroke: #c6ced4; stroke-width: 0.8; stroke-linejoin: miter; stroke-linecap: square"/>
   </g>
   <g id="text_13">
    <text style="font-weight: 700; font-size: 11px; font-family: 'DejaVu Sans'; text-anchor: middle; fill: #ffffff" x="336.96" y="168.169422" transform="rotate(-0 336.96 168.169422)">8</text>
   </g>
   <g id="text_14">
    <text style="font-weight: 700; font-size: 11px; font-family: 'DejaVu Sans'; text-anchor: middle; fill: #203343" x="574.56" y="168.169422" transform="rotate(-0 574.56 168.169422)">2</text>
   </g>
   <g id="text_15">
    <text style="font-weight: 700; font-size: 11px; font-family: 'DejaVu Sans'; text-anchor: middle; fill: #203343" x="669.6" y="168.169422" transform="rotate(-0 669.6 168.169422)">2</text>
   </g>
   <g id="text_16">
    <text style="font-size: 11px; font-family: 'DejaVu Sans'; text-anchor: start; fill: #203343" x="734.2272" y="168.169422" transform="rotate(-0 734.2272 168.169422)">66.7%  (8/12)</text>
   </g>
   <g id="text_17">
    <text style="font-weight: 700; font-size: 11px; font-family: 'DejaVu Sans'; text-anchor: middle; fill: #ffffff" x="313.2" y="208.489422" transform="rotate(-0 313.2 208.489422)">7</text>
   </g>
   <g id="text_18">
    <text style="font-weight: 700; font-size: 11px; font-family: 'DejaVu Sans'; text-anchor: middle; fill: #203343" x="527.04" y="208.489422" transform="rotate(-0 527.04 208.489422)">2</text>
   </g>
   <g id="text_19">
    <text style="font-weight: 700; font-size: 11px; font-family: 'DejaVu Sans'; text-anchor: middle; fill: #203343" x="645.84" y="208.489422" transform="rotate(-0 645.84 208.489422)">3</text>
   </g>
   <g id="text_20">
    <text style="font-size: 11px; font-family: 'DejaVu Sans'; text-anchor: start; fill: #203343" x="734.2272" y="208.489422" transform="rotate(-0 734.2272 208.489422)">58.3%  (7/12)</text>
   </g>
   <g id="text_21">
    <text style="font-weight: 700; font-size: 11px; font-family: 'DejaVu Sans'; text-anchor: middle; fill: #ffffff" x="289.44" y="248.809422" transform="rotate(-0 289.44 248.809422)">6</text>
   </g>
   <g id="text_22">
    <text style="font-weight: 700; font-size: 11px; font-family: 'DejaVu Sans'; text-anchor: middle; fill: #203343" x="479.52" y="248.809422" transform="rotate(-0 479.52 248.809422)">2</text>
   </g>
   <g id="text_23">
    <text style="font-weight: 700; font-size: 11px; font-family: 'DejaVu Sans'; text-anchor: middle; fill: #203343" x="622.08" y="248.809422" transform="rotate(-0 622.08 248.809422)">4</text>
   </g>
   <g id="text_24">
    <text style="font-size: 11px; font-family: 'DejaVu Sans'; text-anchor: start; fill: #203343" x="734.2272" y="248.809422" transform="rotate(-0 734.2272 248.809422)">50.0%  (6/12)</text>
   </g>
   <g id="text_25">
    <text style="font-weight: 700; font-size: 11px; font-family: 'DejaVu Sans'; text-anchor: middle; fill: #ffffff" x="265.68" y="289.129422" transform="rotate(-0 265.68 289.129422)">5</text>
   </g>
   <g id="text_26">
    <text style="font-weight: 700; font-size: 11px; font-family: 'DejaVu Sans'; text-anchor: middle; fill: #203343" x="432" y="289.129422" transform="rotate(-0 432 289.129422)">2</text>
   </g>
   <g id="text_27">
    <text style="font-weight: 700; font-size: 11px; font-family: 'DejaVu Sans'; text-anchor: middle; fill: #203343" x="598.32" y="289.129422" transform="rotate(-0 598.32 289.129422)">5</text>
   </g>
   <g id="text_28">
    <text style="font-size: 11px; font-family: 'DejaVu Sans'; text-anchor: start; fill: #203343" x="734.2272" y="289.129422" transform="rotate(-0 734.2272 289.129422)">41.7%  (5/12)</text>
   </g>
   <g id="text_29">
    <text style="font-weight: 700; font-size: 11px; font-family: 'DejaVu Sans'; text-anchor: middle; fill: #ffffff" x="241.92" y="329.449422" transform="rotate(-0 241.92 329.449422)">4</text>
   </g>
   <g id="text_30">
    <text style="font-weight: 700; font-size: 11px; font-family: 'DejaVu Sans'; text-anchor: middle; fill: #203343" x="384.48" y="329.449422" transform="rotate(-0 384.48 329.449422)">2</text>
   </g>
   <g id="text_31">
    <text style="font-weight: 700; font-size: 11px; font-family: 'DejaVu Sans'; text-anchor: middle; fill: #203343" x="574.56" y="329.449422" transform="rotate(-0 574.56 329.449422)">6</text>
   </g>
   <g id="text_32">
    <text style="font-size: 11px; font-family: 'DejaVu Sans'; text-anchor: start; fill: #203343" x="734.2272" y="329.449422" transform="rotate(-0 734.2272 329.449422)">33.3%  (4/12)</text>
   </g>
   <g id="text_33">
    <text style="font-weight: 700; font-size: 11px; font-family: 'DejaVu Sans'; text-anchor: middle; fill: #ffffff" x="218.16" y="369.769422" transform="rotate(-0 218.16 369.769422)">3</text>
   </g>
   <g id="text_34">
    <text style="font-weight: 700; font-size: 11px; font-family: 'DejaVu Sans'; text-anchor: middle; fill: #203343" x="336.96" y="369.769422" transform="rotate(-0 336.96 369.769422)">2</text>
   </g>
   <g id="text_35">
    <text style="font-weight: 700; font-size: 11px; font-family: 'DejaVu Sans'; text-anchor: middle; fill: #203343" x="550.8" y="369.769422" transform="rotate(-0 550.8 369.769422)">7</text>
   </g>
   <g id="text_36">
    <text style="font-size: 11px; font-family: 'DejaVu Sans'; text-anchor: start; fill: #203343" x="734.2272" y="369.769422" transform="rotate(-0 734.2272 369.769422)">25.0%  (3/12)</text>
   </g>
   <g id="text_37">
    <text style="font-size: 10px; font-family: 'DejaVu Sans'; text-anchor: start; fill: #586875" x="734.2272" y="129.024" transform="rotate(-0 734.2272 129.024)">Accepted / baseline</text>
   </g>
  </g>
  <g id="text_38">
   <text style="font-weight: 700; font-size: 21px; font-family: 'DejaVu Sans'; text-anchor: start; fill: #203343" x="47.52" y="41.156719" transform="rotate(-0 47.52 41.156719)">Linkage decisions across six fictional towns</text>
  </g>
  <g id="text_39">
   <text style="font-size: 11px; font-family: 'DejaVu Sans'; text-anchor: start; fill: #586875" x="47.52" y="58.758281" transform="rotate(-0 47.52 58.758281)">Share of earlier personnel · sorted by accepted-link share · segment labels are people</text>
  </g>
  <g id="text_40">
   <text style="font-weight: 700; font-size: 11px; font-family: 'DejaVu Sans'; text-anchor: start; fill: #203343" x="47.52" y="446.04" transform="rotate(-0 47.52 446.04)">72 invented people · 33 accepted · 12 under review · 27 not observed</text>
  </g>
  <g id="text_41">
   <text style="font-size: 10px; font-family: 'DejaVu Sans'; text-anchor: start; fill: #586875" x="47.52" y="471.24" transform="rotate(-0 47.52 471.24)">Not observed is a linkage status, not evidence that a person left. These shares are not true continuity rates.</text>
  </g>
  <g id="legend_1">
   <g id="patch_22">
    <path d="M 152.46 108.978281 
L 174.46 108.978281 
L 174.46 101.278281 
L 152.46 101.278281 
z
" style="fill: #23658b; stroke: #23658b; stroke-linejoin: miter"/>
   </g>
   <g id="text_42">
    <text style="font-size: 11px; font-family: 'DejaVu Sans'; text-anchor: start; fill: #203343" x="183.26" y="108.978281" transform="rotate(-0 183.26 108.978281)">Accepted</text>
   </g>
   <g id="patch_23">
    <path d="M 256.504531 108.978281 
L 278.504531 108.978281 
L 278.504531 101.278281 
L 256.504531 101.278281 
z
" style="fill: url(#hde528c958b); stroke: #926018; stroke-linejoin: miter"/>
   </g>
   <g id="text_43">
    <text style="font-size: 11px; font-family: 'DejaVu Sans'; text-anchor: start; fill: #203343" x="287.304531" y="108.978281" transform="rotate(-0 287.304531 108.978281)">Review</text>
   </g>
   <g id="patch_24">
    <path d="M 348.553906 108.978281 
L 370.553906 108.978281 
L 370.553906 101.278281 
L 348.553906 101.278281 
z
" style="fill: #c6ced4; stroke: #c6ced4; stroke-linejoin: miter"/>
   </g>
   <g id="text_44">
    <text style="font-size: 11px; font-family: 'DejaVu Sans'; text-anchor: start; fill: #203343" x="379.353906" y="108.978281" transform="rotate(-0 379.353906 108.978281)">Not observed</text>
   </g>
  </g>
 </g>
 <defs>
  <clipPath id="pfbf63fa886">
   <rect x="146.88" y="141.12" width="570.24" height="241.92"/>
  </clipPath>
 </defs>
 <defs>
  <pattern id="hde528c958b" patternUnits="userSpaceOnUse" x="0" y="0" width="72" height="72">
   <rect x="0" y="0" width="73" height="73" fill="#eed9b1"/>
   <path d="M -36 36 
L 36 -36 
M -32 40 
L 40 -32 
M -28 44 
L 44 -28 
M -24 48 
L 48 -24 
M -20 52 
L 52 -20 
M -16 56 
L 56 -16 
M -12 60 
L 60 -12 
M -8 64 
L 64 -8 
M -4 68 
L 68 -4 
M 0 72 
L 72 0 
M 4 76 
L 76 4 
M 8 80 
L 80 8 
M 12 84 
L 84 12 
M 16 88 
L 88 16 
M 20 92 
L 92 20 
M 24 96 
L 96 24 
M 28 100 
L 100 28 
M 32 104 
L 104 32 
M 36 108 
L 108 36 
" style="fill: #926018; stroke: #926018; stroke-width: 1.0; stroke-linecap: butt; stroke-linejoin: miter"/>
  </pattern>
 </defs>
</svg>
